<?xml version="1.0" encoding="UTF-8"?>
<svg width="449px" height="400px" viewBox="0 0 449 400" version="1.1" xmlns="http://www.w3.org/2000/svg" xmlns:xlink="http://www.w3.org/1999/xlink">
    <!-- Generator: Sketch 52.6 (67491) - http://www.bohemiancoding.com/sketch -->
    <title>wallet</title>
    <desc>Created with Sketch.</desc>
    <g id="Page-1" stroke="none" stroke-width="1" fill="none" fill-rule="evenodd">
        <g id="wallet" fill="#FFFFFF">
            <path d="M64.5,56 L384.5,56 C388.237987,55.9982471 391.972265,56.2353971 395.68,56.71 C393.140332,38.8826423 383.426735,22.86706 368.791052,12.3760454 C354.15537,1.88503088 335.868581,-2.17036315 318.17,1.15 L55,46.08 L54.7,46.08 C38.1807373,49.2389732 23.4906279,58.5852736 13.63,72.21 C28.4859544,61.6432487 46.2693922,55.9764602 64.5,56 Z" id="Path"></path>
            <path d="M384.5,80 L64.5,80 C29.1697684,80.0385792 0.538579181,108.669768 0.5,144 L0.5,336 C0.538579181,371.330232 29.1697684,399.961421 64.5,400 L384.5,400 C419.830232,399.961421 448.461421,371.330232 448.5,336 L448.5,144 C448.461421,108.669768 419.830232,80.0385792 384.5,80 Z M337,272 C319.326888,272 305,257.673112 305,240 C305,222.326888 319.326888,208 337,208 C354.673112,208 369,222.326888 369,240 C369,257.673112 354.673112,272 337,272 Z" id="Shape" fill-rule="nonzero"></path>
            <path d="M1,211.5 L1,112 C1,90.33 13,54 54.65,46.13 C90,39.5 125,39.5 125,39.5 C125,39.5 148,55.5 129,55.5 C110,55.5 110.5,80 129,80 C147.5,80 129,103.5 129,103.5 L54.5,188 L1,211.5 Z" id="Path"></path>
        </g>
    </g>
</svg>