<?xml version="1.0" encoding="UTF-8"?>
<svg width="138px" height="26px" viewBox="0 0 138 26" version="1.1" xmlns="http://www.w3.org/2000/svg" xmlns:xlink="http://www.w3.org/1999/xlink">
    <!-- Generator: Sketch 52.6 (67491) - http://www.bohemiancoding.com/sketch -->
    <title>whatsapp-black</title>
    <desc>Created with Sketch.</desc>
    <g id="Page-1" stroke="none" stroke-width="1" fill="none" fill-rule="evenodd">
        <g id="Desktop" transform="translate(-447.000000, -996.000000)" fill="#000000" fill-rule="nonzero">
            <g id="Logos" transform="translate(100.000000, 984.000000)">
                <g id="whatsapp-black" transform="translate(347.000000, 12.000000)">
                    <path d="M19.6754545,14.2928003 L19.6147902,14.2928003 L16.0166522,0 L11.6806448,0 L8.02184254,14.1191484 L7.96330681,14.1191484 L4.63049534,0 L0,0 L5.57281412,20.7404532 L10.2639738,20.7404532 L13.7744146,6.6245536 L13.8351853,6.6245536 L17.4041618,20.7404532 L22.0076243,20.7404532 L27.6681356,0 L23.1275724,0 L19.6754545,14.2928003 Z M41.7978088,7.01671141 C41.3880587,6.48443735 40.8218586,6.06744218 40.1021884,5.76666909 C39.3847532,5.46809677 38.4671259,5.31928221 37.3449428,5.31928221 C36.5574776,5.31928221 35.7528774,5.51588511 34.9273108,5.91223488 C34.0996156,6.30858465 33.4203883,6.9449241 32.8903739,7.81821406 L32.8021446,7.81821406 L32.8021446,0 L28.6127958,0 L28.6127958,20.7404532 L32.8021446,20.7404532 L32.8021446,12.8679533 C32.8021446,11.3432328 33.0562961,10.2398043 33.5691755,9.57192032 C34.0775849,8.90738994 34.9069829,8.56951801 36.0473653,8.56951801 C37.0504548,8.56951801 37.7452207,8.87479746 38.1411351,9.48713794 C38.5343888,10.0953913 38.7323459,11.0205567 38.7323459,12.2598048 L38.7323459,20.7403484 L42.9200983,20.7404532 L42.9200983,11.5038897 C42.9200983,10.5764186 42.8372969,9.72828041 42.667969,8.95937024 C42.5041754,8.19831999 42.2136253,7.55202464 41.7978088,7.01671141 Z M59.0579727,17.4010335 L59.0579727,9.58931695 C59.0579727,8.67599378 58.8511819,7.94512564 58.4349397,7.39346377 C58.0273182,6.84284989 57.4930466,6.41285964 56.8473443,6.10118745 C56.1977042,5.79276403 55.4797369,5.58316606 54.691101,5.47669029 C53.9058708,5.37241529 53.1277714,5.31928221 52.3608469,5.31928221 C51.5176131,5.31928221 50.6744858,5.39966303 49.8373185,5.56576943 C49.0030247,5.73082783 48.2497231,6.00561078 47.5818837,6.39116625 C46.9136185,6.78091369 46.3605091,7.29474312 45.9314954,7.93213056 C45.4952446,8.5696228 45.2499267,9.37437423 45.191391,10.3409353 L49.3835069,10.3409353 C49.4573684,9.53073432 49.7364242,8.94647996 50.2112021,8.6011673 C50.6788494,8.25145308 51.3262545,8.07769636 52.1561847,8.07769636 C52.5295362,8.07769636 52.8757484,8.10148573 53.2022714,8.14937886 C53.5253886,8.19831999 53.8115751,8.29599265 54.0608309,8.43935766 C54.3041266,8.58597145 54.5019774,8.7879191 54.6481038,9.05075496 C54.7964653,9.31034205 54.8659632,9.66435303 54.8659632,10.1096439 C54.8879939,10.5363854 54.7607053,10.8600047 54.485481,11.0815497 C54.2069573,11.3074964 53.8336058,11.4758035 53.366065,11.5908728 C52.891287,11.7070949 52.3519069,11.7940781 51.7397296,11.8526607 C51.1185285,11.9129766 50.4992138,11.9908394 49.8825506,12.0861528 C49.2528126,12.1817295 48.6302053,12.3131474 48.0086623,12.4760051 C47.3906315,12.6422163 46.8397571,12.8876555 46.3582741,13.2188203 C45.8746626,13.5478891 45.4792803,13.9877305 45.1731917,14.5405451 C44.8715731,15.092207 44.721083,15.7959322 44.721083,16.6483672 C44.721083,17.4215741 44.8516709,18.089458 45.119126,18.649923 C45.3849846,19.212484 45.753334,19.6782107 46.2258769,20.0453215 C46.6957592,20.4124324 47.2509972,20.6850146 47.8791387,20.8609721 C48.506216,21.032528 49.1855498,21.1216071 49.9118185,21.1216071 C50.8558401,21.1216071 51.7828332,20.9846349 52.6844963,20.7142535 C53.5882879,20.4395753 54.3779881,19.9702855 55.0463597,19.2883584 C55.0654167,19.5374401 55.0998211,19.785152 55.1493825,20.0301257 C55.1968497,20.2711633 55.2618776,20.510105 55.3407412,20.7403484 L59.5886257,20.7403484 C59.3905621,20.4328682 59.2532692,19.9702855 59.1728092,19.3469411 C59.0956271,18.7010998 59.0572814,18.0513308 59.0579727,17.4010335 Z M54.8659632,14.9323885 C54.8659632,15.1649375 54.8439325,15.4755617 54.7964653,15.8620603 C54.7467632,16.2497118 54.6139403,16.6309705 54.3961874,17.0068845 C54.1776895,17.3857328 53.8425458,17.7115529 53.3903307,17.9808863 C52.9408827,18.2513725 52.3000762,18.3891831 51.4789796,18.3891831 C51.1508959,18.3887995 50.8235132,18.3593369 50.5007943,18.301152 C50.1858721,18.2425693 49.9118185,18.1404951 49.6779949,17.9971301 C49.4391691,17.8527171 49.2528126,17.6540182 49.1139233,17.4010335 C48.980994,17.1490967 48.9066004,16.8396253 48.9066004,16.4713617 C48.9066004,16.0858062 48.980994,15.7654357 49.1139233,15.5124509 C49.2528126,15.2627149 49.4346991,15.054165 49.6625627,14.8901545 C49.8847856,14.7262489 50.1522407,14.5936782 50.4604579,14.4957959 C50.7620765,14.3991713 51.0719966,14.3232968 51.3868124,14.2634566 C51.7221689,14.2082275 52.055184,14.1591816 52.3899019,14.1190436 C52.7252584,14.0798488 53.0462471,14.0311172 53.3506328,13.9724298 C53.6398403,13.9187927 53.92518,13.8466072 54.2048287,13.7563343 C54.4678138,13.6672552 54.691101,13.5477843 54.8659632,13.3935202 L54.8659632,14.9323885 Z M66.8725988,1.2217466 L62.6853785,1.2217466 L62.6853785,5.72433029 L60.1509944,5.72433029 L60.1509944,8.48064846 L62.6853785,8.48064846 L62.6853785,17.3445468 C62.6853785,18.1014051 62.8139443,18.7085056 63.0675636,19.1721364 C63.3261851,19.6380727 63.6702688,19.9987908 64.1181203,20.2485268 C64.5586282,20.4994155 65.0715076,20.6699235 65.6516499,20.7590026 C66.2295572,20.8436802 66.8439695,20.887067 67.4935032,20.887067 C67.9092133,20.887067 68.330032,20.8783687 68.7640478,20.8610768 C69.1935936,20.8382307 69.5873794,20.8022846 69.9424252,20.740558 L69.9424252,17.5475425 C69.7370731,17.5867688 69.5298414,17.6157651 69.3215208,17.6344208 C69.1081314,17.6540182 68.8809064,17.6627166 68.6449542,17.6627166 C67.9363526,17.6627166 67.4620003,17.5475425 67.2276446,17.3130023 C66.9965881,17.082759 66.8725988,16.6168227 66.8725988,15.9176038 L66.8725988,8.48064846 L69.9424252,8.48064846 L69.9424252,5.72433029 L66.8725988,5.72433029 L66.8725988,1.2217466 Z M84.191192,14.1634784 C83.9188412,13.6879006 83.5503854,13.2915508 83.1005117,12.9700275 C82.6465938,12.651753 82.1288187,12.3966722 81.5514435,12.2011173 C80.9708755,12.00682 80.3746626,11.8459535 79.7653588,11.7069901 C79.1867124,11.5749523 78.6065685,11.4493601 78.0250384,11.3302377 C77.456284,11.2140157 76.9452139,11.0814449 76.5052381,10.9402807 C76.0618566,10.7936669 75.7060658,10.6026184 75.4298836,10.373423 C75.1530628,10.1377301 75.0163021,9.84125372 75.0163021,9.46984611 C75.0163021,9.15922191 75.0945271,8.91598346 75.2561921,8.72923166 C75.4074271,8.54782461 75.6024043,8.40666038 75.8259044,8.30898772 C76.0546194,8.21121027 76.3023852,8.14927407 76.579206,8.11888236 C76.8582618,8.09278741 77.1125197,8.07759156 77.3455983,8.07759156 C78.0967713,8.07759156 78.741835,8.21550703 79.2960087,8.50003628 C79.8447546,8.78131676 80.1502046,9.31673479 80.2109754,10.1095391 L84.191192,10.1095391 C84.1123284,9.18206809 83.8742476,8.41106194 83.4693933,7.79955984 C83.0646453,7.19036333 82.5583645,6.70053286 81.9518279,6.33342201 C81.3425242,5.96641596 80.6470133,5.70473288 79.8691267,5.55046877 C79.0888987,5.39410868 78.2901521,5.31917741 77.4675655,5.31917741 C76.6376353,5.31917741 75.8326094,5.38981193 75.0472728,5.53632091 C74.2581047,5.68083871 73.5517381,5.93172749 72.9225323,6.28898724 C72.2950293,6.64844777 71.7865135,7.13492467 71.4021998,7.75502027 C71.017354,8.37731666 70.8287625,9.17127379 70.8287625,10.1377301 C70.8287625,10.7980685 70.9698868,11.3562279 71.2423441,11.8090643 C71.5142691,12.2683983 71.8814478,12.6421115 72.3310022,12.9418366 C72.7832173,13.2427145 73.3003538,13.4868961 73.8804961,13.6672552 C74.4665924,13.8544355 75.0609192,14.0156385 75.6616851,14.1503785 C77.1615833,14.4555531 78.3263378,14.7661773 79.1632923,15.0790023 C79.9976925,15.3862729 80.415744,15.8510565 80.415744,16.4711521 C80.415744,16.8394157 80.3257054,17.1444856 80.1504175,17.385628 C79.9763594,17.626344 79.7494346,17.8253286 79.4865159,17.9677864 C79.2219344,18.1144002 78.9245729,18.220876 78.60103,18.2871089 C78.2772742,18.3533419 77.9667156,18.3891831 77.6745691,18.3891831 C77.2587526,18.3891831 76.8584746,18.3403468 76.477886,18.2426741 C76.0914437,18.1470975 75.7537458,17.9971301 75.4588322,17.7907809 C75.1648764,17.5888333 74.9240285,17.330399 74.735437,17.0068845 C74.5529119,16.68861 74.4563812,16.3073512 74.4563812,15.8620603 L70.471056,15.8620603 C70.5140532,16.8698074 70.7412782,17.7071513 71.1658219,18.3750353 C71.5916427,19.0396704 72.1287878,19.580538 72.7898158,19.9877869 C73.4510567,20.3950358 74.2022297,20.6850146 75.0474856,20.8609721 C75.9013249,21.0345014 76.7709111,21.1218315 77.6427469,21.1216071 C78.5090757,21.1216071 79.356673,21.03672 80.1957561,20.8739671 C81.0318591,20.7100615 81.7739857,20.4232267 82.4193687,20.0138818 C83.0716696,19.6065282 83.5961497,19.0700622 83.9986627,18.4021782 C84.4011756,17.7353422 84.6030707,16.9068015 84.6030707,15.917499 C84.6026449,15.2225769 84.4680128,14.6371698 84.191192,14.1634784 Z M92.5102896,0 L84.5491114,20.7404532 L89.2061074,20.7404532 L90.8571342,16.1205995 L98.7328503,16.1205995 L100.327044,20.7404532 L105.135062,20.7404532 L97.2593464,0 L92.5102896,0 Z M92.0691431,12.7246931 L94.8104244,5.11502898 L94.8710887,5.11502898 L97.525205,12.7246931 L92.0691431,12.7246931 Z M119.619888,7.75512507 C119.053581,7.02100817 118.334018,6.43130426 117.468115,5.98381259 C116.602318,5.54082727 115.567832,5.31928221 114.368914,5.31928221 C113.42436,5.31928221 112.560798,5.50058446 111.773865,5.87094408 C110.986932,6.23690214 110.339102,6.82765403 109.826648,7.64005579 L109.769815,7.64005579 L109.769815,5.72433029 L105.784703,5.72433029 L105.784703,26 L109.977244,26 L109.977244,18.8834152 L110.031416,18.8834152 C110.539294,19.6197328 111.198193,20.1767395 111.99396,20.5525486 C112.790152,20.9305586 113.663186,21.1218167 114.605079,21.1218167 C115.727156,21.1218167 116.703851,20.9067692 117.537612,20.4799229 C118.378611,20.0542294 119.073377,19.4829702 119.635852,18.7650971 C120.196199,18.0505776 120.60978,17.2295823 120.890965,16.2987577 C121.165018,15.3691907 121.300076,14.3993809 121.300076,13.3937298 C121.300076,12.3262473 121.165018,11.3076012 120.890965,10.328045 C120.60978,9.34943207 120.191729,8.49364354 119.619888,7.75512507 Z M116.936929,15.0487154 C116.818049,15.629721 116.617857,16.1381009 116.329967,16.5734359 C116.044206,17.0069893 115.67309,17.3662402 115.208316,17.6345256 C114.74897,17.904907 114.168828,18.0395737 113.485024,18.0395737 C112.815588,18.0395737 112.248218,17.904907 111.773972,17.6345256 C111.314759,17.3753182 110.925374,17.0114458 110.638485,16.5734359 C110.352405,16.1381009 110.145614,15.629721 110.019816,15.0487154 C109.889654,14.4700154 109.826861,13.8758051 109.826861,13.2774029 C109.826861,12.6540585 109.883055,12.0556563 110.003958,11.4759083 C110.122945,10.8949027 110.323244,10.3822261 110.611027,9.93379122 C110.890082,9.4917491 111.267797,9.12799181 111.731613,8.84671133 C112.192023,8.56763162 112.766099,8.42426661 113.455863,8.42426661 C114.124128,8.42426661 114.690647,8.56763162 115.151696,8.84671133 C115.613277,9.12799181 115.992482,9.49394987 116.284735,9.95108306 C116.586354,10.4061203 116.793144,10.9241417 116.92171,11.5040993 C117.049859,12.0867383 117.114014,12.6812566 117.113069,13.2774029 C117.113703,13.8721098 117.054704,14.4654253 116.936929,15.0487154 Z M137.586525,10.3279402 C137.307469,9.34943207 136.889418,8.49364354 136.317683,7.75512507 C135.744778,7.02100817 135.032239,6.43130426 134.16591,5.98381259 C133.297985,5.54082727 132.265627,5.31928221 131.064474,5.31928221 C130.124816,5.31928221 129.254656,5.50058446 128.469426,5.87094408 C127.684621,6.23690214 127.034662,6.82765403 126.522208,7.64005579 L126.465907,7.64005579 L126.465907,5.72433029 L122.480795,5.72433029 L122.480795,26 L126.67057,26 L126.67057,18.8834152 L126.729105,18.8834152 C127.239217,19.6197328 127.898117,20.1767395 128.692074,20.5525486 C129.487947,20.9305586 130.35864,21.1218167 131.305535,21.1218167 C132.422822,21.1218167 133.40154,20.9067692 134.23594,20.4799229 C135.07183,20.0542294 135.771172,19.4829702 136.331945,18.7650971 C136.896016,18.0505776 137.307363,17.2295823 137.586418,16.2987577 C137.862601,15.3691907 138,14.3993809 138,13.3937298 C138.000106,12.3261425 137.862707,11.3074964 137.586525,10.3279402 Z M133.630468,15.0487154 C133.515737,15.629721 133.311182,16.1381009 133.025315,16.5734359 C132.744769,17.0069893 132.366522,17.3662402 131.905899,17.6345256 C131.444956,17.904907 130.868752,18.0395737 130.180478,18.0395737 C129.515406,18.0395737 128.939201,17.904907 128.469426,17.6345256 C127.996776,17.3662402 127.621828,17.0069893 127.336174,16.5734359 C127.049987,16.1381009 126.841068,15.629721 126.713141,15.0487154 C126.585413,14.4666923 126.521438,13.8728597 126.522314,13.2774029 C126.522314,12.6540585 126.583085,12.0556563 126.699412,11.4759083 C126.816802,10.8949027 127.021358,10.3822261 127.307119,9.93379122 C127.590006,9.4917491 127.966018,9.12799181 128.427067,8.84671133 C128.887371,8.56763162 129.465917,8.42426661 130.151955,8.42426661 C130.819582,8.42426661 131.38376,8.56763162 131.847682,8.84671133 C132.310753,9.12799181 132.686446,9.49394987 132.982956,9.95108306 C133.279679,10.4061203 133.491472,10.9241417 133.61727,11.5040993 C133.747965,12.0862576 133.810864,12.6758567 133.810864,13.2774029 C133.810864,13.8757003 133.752222,14.4699106 133.630468,15.0487154 Z" id="Shape"></path>
                </g>
            </g>
        </g>
    </g>
</svg>